<svg width="333" height="365" viewBox="0 0 333 365" fill="none" xmlns="http://www.w3.org/2000/svg">
<path d="M137.282 17.8486C155.038 7.54672 176.844 7.38613 194.727 17.3662L195.575 17.8486L293.674 74.7666C311.717 85.2351 322.856 104.599 322.856 125.583V239.417C322.856 260.074 312.063 279.161 294.516 289.736L293.675 290.233H293.674L195.574 347.152C177.818 357.452 156.013 357.613 138.131 347.635L137.282 347.152L39.1826 290.233L38.3418 289.736C20.7943 279.161 10 260.074 10 239.417V125.583C10 104.928 20.7941 85.8407 38.3418 75.2637L39.1826 74.7666L137.282 17.8486Z" fill="#FF0044" stroke="#266400" stroke-width="20" stroke-miterlimit="16" stroke-linejoin="round"/>
<path d="M67.3578 117.428C68.374 116.857 69.6261 116.857 70.6423 117.428L75.3578 120.079C76.374 120.651 77 121.706 77 122.849V128.151C77 129.294 76.374 130.349 75.3578 130.921L70.6423 133.572C69.6261 134.143 68.374 134.143 67.3578 133.572L62.6422 130.921C61.626 130.349 61 129.294 61 128.151V122.849C61 121.706 61.626 120.651 62.6422 120.079L67.3578 117.428Z" fill="black"/>
<path d="M162.716 165.882C164.748 164.706 167.252 164.706 169.285 165.882L178.716 171.34C180.748 172.516 182 174.69 182 177.042V187.958C182 190.31 180.748 192.484 178.716 193.66L169.285 199.118C167.252 200.294 164.748 200.294 162.716 199.118L153.284 193.66C151.252 192.484 150 190.31 150 187.958V177.042C150 174.69 151.252 172.516 153.284 171.34L162.716 165.882Z" fill="black"/>
<path d="M245.358 117.428C246.374 116.857 247.626 116.857 248.642 117.428L253.358 120.079C254.374 120.651 255 121.706 255 122.849V128.151C255 129.294 254.374 130.349 253.358 130.921L248.642 133.572C247.626 134.143 246.374 134.143 245.358 133.572L240.642 130.921C239.626 130.349 239 129.294 239 128.151V122.849C239 121.706 239.626 120.651 240.642 120.079L245.358 117.428Z" fill="black"/>
<path d="M70.1393 234.63C71.6001 233.79 73.4 233.79 74.8608 234.63L81.6393 238.529C83.1002 239.369 84 240.921 84 242.602V250.398C84 252.079 83.1002 253.631 81.6393 254.471L74.8608 258.37C73.4 259.21 71.6001 259.21 70.1393 258.37L63.3607 254.471C61.8999 253.631 61 252.079 61 250.398V242.602C61 240.921 61.8999 239.369 63.3607 238.529L70.1393 234.63Z" fill="black"/>
<path d="M250.126 228.781C251.905 227.74 254.096 227.74 255.874 228.781L264.126 233.615C265.905 234.657 267 236.582 267 238.666V248.334C267 250.418 265.905 252.343 264.126 253.385L255.874 258.219C254.096 259.26 251.905 259.26 250.126 258.219L241.874 253.385C240.096 252.343 239 250.418 239 248.334V238.666C239 236.582 240.096 234.657 241.874 233.615L250.126 228.781Z" fill="black"/>
<path d="M158.742 280.605C160.139 279.798 161.861 279.798 163.258 280.605L169.742 284.347C171.139 285.154 172 286.644 172 288.258V295.742C172 297.356 171.139 298.846 169.742 299.653L163.258 303.395C161.861 304.202 160.139 304.202 158.742 303.395L152.258 299.653C150.861 298.846 150 297.356 150 295.742V288.258C150 286.644 150.861 285.154 152.258 284.347L158.742 280.605Z" fill="black"/>
<path d="M158.742 75.6049C160.139 74.7984 161.861 74.7984 163.258 75.6049L169.742 79.3474C171.139 80.1539 172 81.6444 172 83.2575V90.7425C172 92.3556 171.139 93.8461 169.742 94.6526L163.258 98.3952C161.861 99.2016 160.139 99.2016 158.742 98.3952L152.258 94.6526C150.861 93.8461 150 92.3556 150 90.7425V83.2575C150 81.6444 150.861 80.1539 152.258 79.3474L158.742 75.6049Z" fill="black"/>
</svg>
